<mxfile host="app.diagrams.net" agent="Mozilla/5.0 (Macintosh; Intel Mac OS X 10_15_7) AppleWebKit/537.36 (KHTML, like Gecko) Chrome/134.0.0.0 Safari/537.36" version="26.0.15">
  <diagram name="Page-1" id="Ys4WzZDrvylC5mD4syEH">
    <mxGraphModel>
      <root>
        <mxCell id="0" />
        <mxCell id="1" parent="0" />
        <mxCell id="2" value="Data Sources" style="whiteSpace=wrap;strokeWidth=2;verticalAlign=top;" vertex="1" parent="1">
          <mxGeometry x="8" y="8" width="1573" height="303" as="geometry" />
        </mxCell>
        <mxCell id="3" value="External" style="whiteSpace=wrap;strokeWidth=2;verticalAlign=top;" vertex="1" parent="2">
          <mxGeometry x="43" y="46" width="823" height="228" as="geometry" />
        </mxCell>
        <mxCell id="4" value="External API 1" style="whiteSpace=wrap;strokeWidth=2;" vertex="1" parent="3">
          <mxGeometry x="58" y="43" width="160" height="54" as="geometry" />
        </mxCell>
        <mxCell id="5" value="External Database 1" style="whiteSpace=wrap;strokeWidth=2;" vertex="1" parent="3">
          <mxGeometry x="318" y="43" width="203" height="54" as="geometry" />
        </mxCell>
        <mxCell id="6" value="External API 2" style="whiteSpace=wrap;strokeWidth=2;" vertex="1" parent="3">
          <mxGeometry x="621" y="43" width="160" height="54" as="geometry" />
        </mxCell>
        <mxCell id="7" value="External API 3" style="whiteSpace=wrap;strokeWidth=2;" vertex="1" parent="3">
          <mxGeometry x="58" y="147" width="160" height="54" as="geometry" />
        </mxCell>
        <mxCell id="8" value="External Database 2" style="whiteSpace=wrap;strokeWidth=2;" vertex="1" parent="3">
          <mxGeometry x="318" y="147" width="203" height="54" as="geometry" />
        </mxCell>
        <mxCell id="9" value="External API 4" style="whiteSpace=wrap;strokeWidth=2;" vertex="1" parent="3">
          <mxGeometry x="621" y="147" width="160" height="54" as="geometry" />
        </mxCell>
        <mxCell id="10" value="" style="curved=1;startArrow=none;endArrow=block;exitX=1;exitY=0.5;entryX=0;entryY=0.5;" edge="1" parent="3" source="4" target="5">
          <mxGeometry relative="1" as="geometry">
            <Array as="points" />
          </mxGeometry>
        </mxCell>
        <mxCell id="11" value="" style="curved=1;startArrow=none;endArrow=block;exitX=1;exitY=0.5;entryX=0;entryY=0.5;" edge="1" parent="3" source="5" target="6">
          <mxGeometry relative="1" as="geometry">
            <Array as="points" />
          </mxGeometry>
        </mxCell>
        <mxCell id="12" value="" style="curved=1;startArrow=none;endArrow=block;exitX=1;exitY=0.5;entryX=0;entryY=0.5;" edge="1" parent="3" source="7" target="8">
          <mxGeometry relative="1" as="geometry">
            <Array as="points" />
          </mxGeometry>
        </mxCell>
        <mxCell id="13" value="" style="curved=1;startArrow=none;endArrow=block;exitX=1;exitY=0.5;entryX=0;entryY=0.5;" edge="1" parent="3" source="8" target="9">
          <mxGeometry relative="1" as="geometry">
            <Array as="points" />
          </mxGeometry>
        </mxCell>
        <mxCell id="14" value="Internal" style="whiteSpace=wrap;strokeWidth=2;verticalAlign=top;" vertex="1" parent="2">
          <mxGeometry x="916" y="46" width="631" height="228" as="geometry" />
        </mxCell>
        <mxCell id="15" value="Database 1" style="whiteSpace=wrap;strokeWidth=2;" vertex="1" parent="14">
          <mxGeometry x="254" y="43" width="139" height="54" as="geometry" />
        </mxCell>
        <mxCell id="16" value="API 1" style="whiteSpace=wrap;strokeWidth=2;" vertex="1" parent="14">
          <mxGeometry x="493" y="43" width="96" height="54" as="geometry" />
        </mxCell>
        <mxCell id="17" value="API 2" style="whiteSpace=wrap;strokeWidth=2;" vertex="1" parent="14">
          <mxGeometry x="58" y="147" width="96" height="54" as="geometry" />
        </mxCell>
        <mxCell id="18" value="Database 2" style="whiteSpace=wrap;strokeWidth=2;" vertex="1" parent="14">
          <mxGeometry x="254" y="147" width="139" height="54" as="geometry" />
        </mxCell>
        <mxCell id="19" value="API 3" style="whiteSpace=wrap;strokeWidth=2;" vertex="1" parent="14">
          <mxGeometry x="493" y="147" width="96" height="54" as="geometry" />
        </mxCell>
        <mxCell id="20" value="API 4" style="whiteSpace=wrap;strokeWidth=2;" vertex="1" parent="14">
          <mxGeometry x="58" y="43" width="96" height="54" as="geometry" />
        </mxCell>
        <mxCell id="21" value="" style="curved=1;startArrow=none;endArrow=block;exitX=1;exitY=0.5;entryX=0;entryY=0.5;" edge="1" parent="14" source="15" target="16">
          <mxGeometry relative="1" as="geometry">
            <Array as="points" />
          </mxGeometry>
        </mxCell>
        <mxCell id="22" value="" style="curved=1;startArrow=none;endArrow=block;exitX=1;exitY=0.5;entryX=0;entryY=0.5;" edge="1" parent="14" source="17" target="18">
          <mxGeometry relative="1" as="geometry">
            <Array as="points" />
          </mxGeometry>
        </mxCell>
        <mxCell id="23" value="" style="curved=1;startArrow=none;endArrow=block;exitX=1;exitY=0.5;entryX=0;entryY=0.5;" edge="1" parent="14" source="18" target="19">
          <mxGeometry relative="1" as="geometry">
            <Array as="points" />
          </mxGeometry>
        </mxCell>
        <mxCell id="24" value="" style="curved=1;startArrow=none;endArrow=block;exitX=1;exitY=0.5;entryX=0;entryY=0.5;" edge="1" parent="14" source="20" target="15">
          <mxGeometry relative="1" as="geometry">
            <Array as="points" />
          </mxGeometry>
        </mxCell>
      </root>
    </mxGraphModel>
  </diagram>
</mxfile>
